# xmcd
#
# Track frame offsets:
#	150
#	21119
#	40534
#	64209
#	84278
#	124783
#	143875
#	163242
#	183434
#	207004
#	230596
#	261233
#
# Disc length: 4018 seconds
#
# Revision: 1
# Processed by: cddbd v1.4PL0 Copyright (c) Steve Scherf et al.
# Submitted via: audiograbber 1.80.04
#
DISCID=a10fb00c
DTITLE=Big Sugar - Hemi-Vision
DYEAR=1996
DGENRE=Blues
TTITLE0=Diggin' a Hole
TTITLE1=Gone for Good
TTITLE2=If I Had My Way
TTITLE3=Skull Ring
TTITLE4=Joe Louis - Judgement Day
TTITLE5=Tommy Johnson
TTITLE6=La Stralla
TTITLE7=Tired All The Time
TTITLE8=Empty Head
TTITLE9=Open Up Baby
TTITLE10=Rolling Pin
TTITLE11=Tobacco Hand
EXTD=
EXTT0=
EXTT1=
EXTT2=
EXTT3=
EXTT4=
EXTT5=
EXTT6=
EXTT7=
EXTT8=
EXTT9=
EXTT10=
EXTT11=
PLAYORDER=
